<svg xmlns="http://www.w3.org/2000/svg" viewBox="0 0 256 256">
<rect width="256" height="256" rx="34" fill="#fff"/>
<path d="M51 131c0-31 25-56 56-56 21 0 40 12 49 30 7-4 15-6 24-6 28 0 50 22 50 50s-22 50-50 50H61c-28 0-50-22-50-50 0-24 17-44 40-49z" fill="#232f3e"/>
<text x="128" y="157" text-anchor="middle" font-family="Arial,sans-serif" font-size="39" font-weight="700" fill="#fff">aws</text>
<path d="M77 190c34 18 76 19 106 2" fill="none" stroke="#ff9900" stroke-width="9" stroke-linecap="round"/>
<path d="M174 185l14 7-15 5" fill="none" stroke="#ff9900" stroke-width="7" stroke-linecap="round" stroke-linejoin="round"/>
</svg>
