<svg xmlns="http://www.w3.org/2000/svg" viewBox="0 0 18.035 17.5">
	<g stroke-width="0">
		<path fill="#326ce5" d="M8.958.463a1.136 1.126 0 0 0-.435.11l-5.94 2.838a1.136 1.126 0 0 0-.615.764L.503 10.55a1.136 1.126 0 0 0 .154.864a1.136 1.126 0 0 0 .065.09l4.111 5.111a1.136 1.126 0 0 0 .888.424l6.593-.002a1.136 1.126 0 0 0 .888-.423l4.11-5.112a1.136 1.126 0 0 0 .219-.953l-1.468-6.375a1.136 1.126 0 0 0-.614-.764L9.509.573a1.136 1.126 0 0 0-.551-.11" />
		<path fill="#fff" d="M8.955.001a1.199 1.19 0 0 0-.46.117l-6.27 2.996a1.199 1.19 0 0 0-.649.806L.03 10.65a1.199 1.19 0 0 0 .162.912a1.199 1.19 0 0 0 .069.094l4.34 5.397a1.199 1.19 0 0 0 .937.447l6.96-.001a1.199 1.19 0 0 0 .937-.447l4.338-5.397a1.199 1.19 0 0 0 .232-1.006l-1.549-6.73a1.199 1.19 0 0 0-.649-.806L9.537.118A1.199 1.19 0 0 0 8.955 0m.003.462a1.136 1.126 0 0 1 .55.11l5.94 2.837a1.136 1.126 0 0 1 .615.764l1.468 6.375a1.136 1.126 0 0 1-.22.953l-4.11 5.113a1.136 1.126 0 0 1-.887.423l-6.593.001a1.136 1.126 0 0 1-.888-.424l-4.111-5.11a1.136 1.126 0 0 1-.065-.09a1.136 1.126 0 0 1-.154-.864l1.465-6.374a1.136 1.126 0 0 1 .615-.765L8.523.573a1.136 1.126 0 0 1 .435-.11" color="#000" />
	</g>
	<path fill="#fff" d="M5.175 4.251a.855.855 0 0 0-.857.857v7.285c0 .474.382.857.857.857h7.685a.855.855 0 0 0 .857-.857V5.108a.855.855 0 0 0-.857-.857zm3.842 1.422c.73 0 1.315.589 1.315 1.319S9.747 8.31 9.017 8.31s-1.319-.588-1.319-1.318s.59-1.32 1.32-1.32m0 3.517c1.025 0 3.078.514 3.078 1.539v1.099H5.94v-1.1c0-1.024 2.053-1.538 3.077-1.538" />
</svg>
